<?xml version="1.0" encoding="UTF-8" standalone="no"?>
<!-- Created with Inkscape (http://www.inkscape.org/) -->

<svg
   xmlns:dc="http://purl.org/dc/elements/1.1/"
   xmlns:cc="http://creativecommons.org/ns#"
   xmlns:rdf="http://www.w3.org/1999/02/22-rdf-syntax-ns#"
   xmlns:svg="http://www.w3.org/2000/svg"
   xmlns="http://www.w3.org/2000/svg"
   xmlns:sodipodi="http://sodipodi.sourceforge.net/DTD/sodipodi-0.dtd"
   xmlns:inkscape="http://www.inkscape.org/namespaces/inkscape"
   width="86.013229mm"
   height="70.774666mm"
   viewBox="0 0 86.013229 70.774666"
   version="1.1"
   id="svg8"
   inkscape:version="0.92.4 (5da689c313, 2019-01-14)"
   sodipodi:docname="Logo.svg">
  <defs
     id="defs2" />
  <sodipodi:namedview
     id="base"
     pagecolor="#ffffff"
     bordercolor="#666666"
     borderopacity="1.0"
     inkscape:pageopacity="0.0"
     inkscape:pageshadow="2"
     inkscape:zoom="1.4"
     inkscape:cx="112.45003"
     inkscape:cy="111.2485"
     inkscape:document-units="mm"
     inkscape:current-layer="layer1"
     showgrid="false"
     inkscape:window-width="1920"
     inkscape:window-height="1051"
     inkscape:window-x="-9"
     inkscape:window-y="-9"
     inkscape:window-maximized="1" />
  <metadata
     id="metadata5">
    <rdf:RDF>
      <cc:Work
         rdf:about="">
        <dc:format>image/svg+xml</dc:format>
        <dc:type
           rdf:resource="http://purl.org/dc/dcmitype/StillImage" />
        <dc:title></dc:title>
      </cc:Work>
    </rdf:RDF>
  </metadata>
  <g
     inkscape:label="Layer 1"
     inkscape:groupmode="layer"
     id="layer1"
     transform="translate(-60.558857,-98.625043)">
    <path
       inkscape:connector-curvature="0"
       id="path827"
       style="fill:#4f369a;fill-opacity:1;fill-rule:nonzero;stroke:none;stroke-width:0.03527778"
       d="m 89.03368,116.18209 22.5418,-11.87027 2.38477,-1.25624 c -0.0607,-0.0328 -0.12206,-0.067 -0.18238,-0.0984 -0.26459,-0.13511 -0.78776,-0.39652 -1.42522,-0.68086 -0.93134,-0.41557 -2.09233,-0.877 -3.01167,-1.05551 -0.0247,-0.003 -0.0515,-0.0106 -0.0755,-0.0155 l -7.1e-4,7.1e-4 c -0.0265,-0.006 -3.59057,-0.7493 -5.69207,-0.7493 -11.689644,0 -21.169171,9.04345 -21.169171,20.20005 0,1.56457 0.194027,3.08469 0.546382,4.5459 l -22.391054,17.27623 23.762901,-13.42672 0.01005,0.0205 c 0.28,0.58773 0.591467,1.17792 0.929746,1.73143 l -14.820795,11.95176 17.377058,-8.6106 h 7.06e-4 l 1.986844,-1.77412 12.316713,-11.00314 -14.338306,8.02393 c -1.40215,-2.59362 -2.224828,-5.59611 -2.224828,-8.75982 0,-10.05805 8.06704,-18.21604 18.013754,-18.21604 1.22308,0 2.41512,0.12524 3.57258,0.35878 l -7e-4,3.5e-4 -18.110914,13.40697" />
    <path
       inkscape:connector-curvature="0"
       id="path829"
       style="fill:#4f369a;fill-opacity:1;fill-rule:nonzero;stroke:none;stroke-width:0.03527778"
       d="m 114.71767,103.80594 -17.543642,14.12981 21.306372,-11.56865 7.58119,-7.742057 -11.34392,5.180897" />
    <path
       inkscape:connector-curvature="0"
       id="path831"
       style="fill:#4f369a;fill-opacity:1;fill-rule:nonzero;stroke:none;stroke-width:0.03527778"
       d="m 124.1834,116.01946 22.38869,-17.394417 -23.80544,13.506097 c 0.0138,0.0318 0.024,0.0621 0.037,0.0938 -0.0148,-0.03 -0.0296,-0.0614 -0.0441,-0.0903 l 0.007,-0.004 c -0.29634,-0.60642 -0.62301,-1.1945 -0.97826,-1.76636 l 14.0896,-11.58134 -16.5915,8.33685 -0.248,0.12311 -1.77976,1.54905 -12.34405,10.74244 14.43179,-7.70326 c 1.42557,2.60738 2.24049,5.60705 2.24049,8.8004 0,10.05981 -8.06415,18.21427 -18.01354,18.21427 -1.22026,0 -2.41159,-0.12453 -3.56447,-0.35878 l 17.99237,-13.67261 -22.349599,12.18072 -2.38058,1.29751 c 0.01337,0.007 0.02621,0.0141 0.03888,0.0208 1.410829,0.74894 2.918566,1.34831 4.50395,1.77623 0.02152,0.005 0.04304,0.0102 0.06456,0.0155 1.813631,0.48436 3.720749,0.75071 5.695599,0.75071 11.69176,0 21.16949,-9.04276 21.16949,-20.20006 0,-1.6376 -0.20955,-3.22827 -0.59478,-4.75121 0.0219,0.0723 0.0346,0.1143 0.0346,0.1143" />
    <path
       inkscape:connector-curvature="0"
       id="path833"
       style="fill:#4f369a;fill-opacity:1;fill-rule:nonzero;stroke:none;stroke-width:0.03527778"
       d="m 90.939103,133.60931 -2.359907,1.30528 v 0 l -7.76344,8.00382 11.407388,-5.20876 0.0042,-0.004 1.907469,-1.56104 16.208807,-13.2588 -19.40448,10.72338" />
    <path
       inkscape:connector-curvature="0"
       id="path835"
       style="fill:#4f369a;fill-opacity:1;fill-rule:nonzero;stroke:none;stroke-width:0.03527778"
       d="m 93.747955,144.85022 c 0.418501,3.97934 0.869809,7.9428 1.304996,11.02008 -0.290054,-0.0162 -0.515796,-0.0483 -0.757237,-0.0483 -0.258093,0 -0.515797,0.0321 -0.757238,0.0483 -0.273932,-3.23815 -0.596406,-6.71866 -0.82169,-8.31356 -1.868911,3.33516 -3.254516,5.91326 -4.221233,8.13646 h -0.17706 l -0.886495,-1.82068 c -1.031064,-2.12655 -2.158718,-4.22134 -3.254234,-6.31578 -0.354436,3.14183 -0.789623,6.33236 -0.789623,8.31356 -0.209479,-0.0162 -0.386538,-0.0483 -0.56388,-0.0483 -0.209197,0 -0.386538,0.0321 -0.579896,0.0483 0.418924,-2.59398 1.385606,-9.32815 1.546578,-11.02008 h 0.418924 c 1.289156,2.56188 2.835593,5.59047 4.559512,8.44233 1.530738,-2.75484 3.012793,-5.55872 4.640263,-8.44233 h 0.338313" />
    <path
       inkscape:connector-curvature="0"
       id="path837"
       style="fill:#4f369a;fill-opacity:1;fill-rule:nonzero;stroke:none;stroke-width:0.03527778"
       d="m 96.581714,144.85022 c 0.225778,0.0159 0.467783,0.0483 0.709083,0.0483 0.225778,0 0.451203,-0.0325 0.709083,-0.0483 v 11.02008 c -0.25788,-0.0162 -0.483305,-0.0483 -0.709083,-0.0483 -0.2413,0 -0.483305,0.0321 -0.709083,0.0483 v -11.02008" />
    <path
       inkscape:connector-curvature="0"
       id="path839"
       style="fill:#4f369a;fill-opacity:1;fill-rule:nonzero;stroke:none;stroke-width:0.03527778"
       d="m 109.68,155.8703 h -0.48366 c -0.17709,-0.22613 -0.49953,-0.61243 -0.83784,-0.9832 l -6.95961,-7.70078 h -0.16086 v 8.68398 c -0.16122,-0.0162 -0.30657,-0.0483 -0.45156,-0.0483 -0.16086,0 -0.30586,0.0321 -0.45085,0.0483 v -11.02008 h 0.6283 l 7.65246,8.29698 h 0.16122 v -8.29698 c 0.14534,0.0159 0.28998,0.0483 0.4512,0.0483 0.14464,0 0.28998,-0.0325 0.4512,-0.0483 v 11.02008" />
    <path
       inkscape:connector-curvature="0"
       id="path841"
       style="fill:#4f369a;fill-opacity:1;fill-rule:nonzero;stroke:none;stroke-width:0.03527778"
       d="m 113.06173,149.65118 h 2.49767 c 0.48295,0 0.95038,-0.0646 1.43404,-0.0804 -0.0166,0.12912 -0.0483,0.27446 -0.0483,0.41875 0,0.12912 0.0318,0.27446 0.0483,0.4512 -0.48366,-0.0162 -0.95109,-0.0804 -1.43404,-0.0804 h -2.49767 v 4.70464 c 0.98319,0.0321 1.95015,-0.0324 2.91677,-0.0649 0.49953,-0.0159 0.98248,-0.0639 1.48202,-0.14464 -0.0159,0.1771 -0.0483,0.32174 -0.0483,0.48296 0,0.16157 0.0325,0.32244 0.0483,0.48366 h -5.8159 V 144.8503 h 5.71959 c -0.0166,0.1771 -0.049,0.32244 -0.049,0.48296 0,0.16122 0.0325,0.32244 0.049,0.48365 -0.48401,-0.0963 -0.96697,-0.14534 -1.45063,-0.17674 l -1.61078,-0.0324 h -1.24107 v 4.04354" />
    <path
       inkscape:connector-curvature="0"
       id="path843"
       style="fill:#4f369a;fill-opacity:1;fill-rule:nonzero;stroke:none;stroke-width:0.03527778"
       d="m 118.74815,153.69507 c 0.62865,1.03187 1.35397,1.67569 2.61021,1.67569 1.30492,0 2.23978,-1.0795 2.23978,-2.35197 0,-2.99684 -5.0426,-1.67569 -5.0426,-5.31671 0,-2.07857 1.64324,-3.09351 3.57646,-3.09351 0.77329,0 1.70744,0.24165 2.30399,0.77364 -0.19332,0.4191 -0.30656,0.86925 -0.43533,1.3208 h -0.16122 c -0.33831,-0.8703 -1.04669,-1.40123 -1.99742,-1.40123 -1.11125,0 -2.02989,0.74083 -2.02989,1.88454 0,2.96474 5.07471,1.77235 5.07471,5.20382 0,2.30435 -1.78823,3.67313 -3.97933,3.67313 -0.78952,0 -2.07857,-0.33832 -2.62643,-0.93416 0.16122,-0.46708 0.242,-0.95038 0.30656,-1.43404 h 0.16051" />
    <path
       inkscape:connector-curvature="0"
       id="path849"
       style="fill:#505c68;fill-opacity:1;fill-rule:nonzero;stroke:none;stroke-width:0.03527778"
       d="m 69.479877,169.39971 c -1.472177,0 -2.531604,-0.34396 -3.467136,-1.29328 l 0.990389,-0.97688 c 0.715468,0.71547 1.499976,0.93525 2.504158,0.93525 1.279666,0 2.022686,-0.54994 2.022686,-1.4993 0,-0.42648 -0.124001,-0.78423 -0.385162,-1.01823 -0.247615,-0.23385 -0.495406,-0.33016 -1.073468,-0.41271 l -1.155488,-0.1651 c -0.79816,-0.1101 -1.431114,-0.38555 -1.857622,-0.78451 -0.481613,-0.45406 -0.71561,-1.07322 -0.71561,-1.87081 0,-1.70643 1.238603,-2.87585 3.274907,-2.87585 1.293283,0 2.20158,0.3302 3.040803,1.11485 l -0.949466,0.93514 c -0.605402,-0.57781 -1.307077,-0.75671 -2.132683,-0.75671 -1.155735,0 -1.788689,0.66037 -1.788689,1.52714 0,0.35818 0.109961,0.67455 0.371545,0.90841 0.247615,0.22024 0.646572,0.38491 1.100632,0.45406 l 1.114531,0.1651 c 0.908156,0.13755 1.417179,0.35733 1.830035,0.72912 0.536363,0.46743 0.797912,1.16953 0.797912,2.00879 0,1.80273 -1.472177,2.87552 -3.522274,2.87552" />
    <path
       inkscape:connector-curvature="0"
       id="path851"
       style="fill:#505c68;fill-opacity:1;fill-rule:nonzero;stroke:none;stroke-width:0.03527778"
       d="m 77.87239,166.23519 h -1.637101 c -0.825711,0 -1.252361,0.37193 -1.252361,1.00446 0,0.63321 0.399345,0.99053 1.279913,0.99053 0.536328,0 0.935285,-0.0412 1.307077,-0.39895 0.206446,-0.20669 0.302472,-0.53661 0.302472,-1.03188 z m 0.02759,3.08197 v -0.63292 c -0.509199,0.50945 -0.990565,0.71547 -1.85734,0.71547 -0.866634,0 -1.444872,-0.20602 -1.87138,-0.63249 -0.35747,-0.37194 -0.550086,-0.9084 -0.550086,-1.50015 0,-1.16939 0.811635,-2.00862 2.407708,-2.00862 h 1.843511 v -0.49526 c 0,-0.88057 -0.440267,-1.30708 -1.527281,-1.30708 -0.770325,0 -1.141977,0.17886 -1.52714,0.6737 l -0.921879,-0.86677 c 0.66033,-0.77005 1.348388,-1.00433 2.504299,-1.00433 1.912303,0 2.875563,0.8121 2.875563,2.39434 v 4.66411 H 77.89998" />
    <path
       inkscape:connector-curvature="0"
       id="path853"
       style="fill:#505c68;fill-opacity:1;fill-rule:nonzero;stroke:none;stroke-width:0.03527778"
       d="m 80.74767,169.31716 v -6.9759 h 1.403527 v 6.9759 z m -0.04134,-8.35173 v -1.48551 h 1.486217 v 1.48551 H 80.70633" />
    <path
       inkscape:connector-curvature="0"
       id="path855"
       style="fill:#505c68;fill-opacity:1;fill-rule:nonzero;stroke:none;stroke-width:0.03527778"
       d="m 87.943526,169.31716 v -4.25164 c 0,-1.08701 -0.61916,-1.55444 -1.403527,-1.55444 -0.78426,0 -1.444625,0.48164 -1.444625,1.55444 v 4.25164 h -1.403526 v -6.9759 h 1.375974 v 0.70214 c 0.481648,-0.52285 1.155912,-0.78469 1.857587,-0.78469 0.715222,0 1.307077,0.23428 1.719792,0.63296 0.536469,0.5231 0.701851,1.1836 0.701851,1.96769 v 4.4578 h -1.403526" />
    <path
       inkscape:connector-curvature="0"
       id="path857"
       style="fill:#505c68;fill-opacity:1;fill-rule:nonzero;stroke:none;stroke-width:0.03527778"
       d="m 92.896068,169.31716 c -1.306936,0 -1.912303,-0.93553 -1.912303,-1.93999 v -3.83893 h -0.797913 v -1.07308 h 0.797913 v -2.11847 h 1.403527 v 2.11847 h 1.34814 v 1.07308 h -1.34814 v 3.77017 c 0,0.50906 0.247332,0.81181 0.770325,0.81181 h 0.577815 v 1.19694 h -0.839364" />
    <path
       inkscape:connector-curvature="0"
       id="path859"
       style="fill:#505c68;fill-opacity:1;fill-rule:nonzero;stroke:none;stroke-width:0.03527778"
       d="m 94.643552,166.15306 v -1.30736 h 4.017081 v 1.30736 h -4.017081" />
    <path
       inkscape:connector-curvature="0"
       id="path861"
       style="fill:#505c68;fill-opacity:1;fill-rule:nonzero;stroke:none;stroke-width:0.03527778"
       d="m 103.51768,158.57152 h -1.05939 l 1.03187,-2.22885 h 1.55469 z m -3.34328,10.74564 v -9.7959 h 6.26004 v 1.33449 h -4.77449 v 2.86135 h 4.07282 v 1.32087 h -4.07282 v 2.94456 h 4.77449 v 1.33463 h -6.26004" />
    <path
       inkscape:connector-curvature="0"
       id="path863"
       style="fill:#505c68;fill-opacity:1;fill-rule:nonzero;stroke:none;stroke-width:0.03527778"
       d="m 109.69482,169.31716 c -1.30704,0 -1.91276,-0.93553 -1.91276,-1.93999 v -3.83893 h -0.79763 v -1.07308 h 0.79763 v -2.11847 h 1.4037 v 2.11847 h 1.34832 v 1.07308 h -1.34832 v 3.77017 c 0,0.50906 0.24765,0.81181 0.77082,0.81181 h 0.5775 v 1.19694 h -0.83926" />
    <path
       inkscape:connector-curvature="0"
       id="path865"
       style="fill:#505c68;fill-opacity:1;fill-rule:nonzero;stroke:none;stroke-width:0.03527778"
       d="m 111.63439,169.31716 v -6.9759 h 1.4037 v 6.9759 z m -0.0413,-8.35173 v -1.48551 h 1.48626 v 1.48551 h -1.48626" />
    <path
       inkscape:connector-curvature="0"
       id="path867"
       style="fill:#505c68;fill-opacity:1;fill-rule:nonzero;stroke:none;stroke-width:0.03527778"
       d="m 118.55518,164.30909 c -0.22013,-0.52281 -0.71578,-0.88053 -1.37618,-0.88053 -0.6604,0 -1.16911,0.35772 -1.38924,0.88053 -0.13794,0.31613 -0.16545,0.52286 -0.17886,0.94936 h 3.13655 c -0.0138,-0.4265 -0.0547,-0.63323 -0.19227,-0.94936 z m -2.94428,1.9261 c 0,1.19712 0.63288,1.95379 1.77447,1.95379 0.78458,0 1.19733,-0.2202 1.69263,-0.71508 l 0.89429,0.83922 c -0.71543,0.71508 -1.38959,1.08659 -2.61408,1.08659 -1.74731,0 -3.13725,-0.92191 -3.13725,-3.57723 0,-2.25627 1.16981,-3.56377 2.95804,-3.56377 1.87148,0 2.95839,1.37626 2.95839,3.35746 v 0.61902 h -4.52649" />
    <path
       inkscape:connector-curvature="0"
       id="path869"
       style="fill:#505c68;fill-opacity:1;fill-rule:nonzero;stroke:none;stroke-width:0.03527778"
       d="m 125.55782,169.31716 v -4.25164 c 0,-1.08701 -0.61912,-1.55444 -1.40335,-1.55444 -0.78422,0 -1.44462,0.48164 -1.44462,1.55444 v 4.25164 h -1.4037 v -6.9759 h 1.37618 v 0.70214 c 0.48154,-0.52285 1.1557,-0.78469 1.85738,-0.78469 0.71543,0 1.30704,0.23428 1.71979,0.63296 0.53657,0.5231 0.70203,1.1836 0.70203,1.96769 v 4.4578 h -1.40371" />
    <path
       inkscape:connector-curvature="0"
       id="path871"
       style="fill:#505c68;fill-opacity:1;fill-rule:nonzero;stroke:none;stroke-width:0.03527778"
       d="m 132.68464,169.31716 v -4.25164 c 0,-1.08701 -0.61912,-1.55444 -1.40335,-1.55444 -0.78422,0 -1.44462,0.48164 -1.44462,1.55444 v 4.25164 h -1.40335 v -6.9759 h 1.37583 v 0.70214 c 0.48154,-0.52285 1.1557,-0.78469 1.85773,-0.78469 0.71508,0 1.30704,0.23428 1.71979,0.63296 0.53622,0.5231 0.70167,1.1836 0.70167,1.96769 v 4.4578 h -1.4037" />
    <path
       inkscape:connector-curvature="0"
       id="path873"
       style="fill:#505c68;fill-opacity:1;fill-rule:nonzero;stroke:none;stroke-width:0.03527778"
       d="m 139.53629,164.30909 c -0.22013,-0.52281 -0.71543,-0.88053 -1.37583,-0.88053 -0.6604,0 -1.16981,0.35772 -1.38995,0.88053 -0.13723,0.31613 -0.16474,0.52286 -0.17885,0.94936 h 3.13725 c -0.0138,-0.4265 -0.055,-0.63323 -0.19262,-0.94936 z m -2.94463,1.9261 c 0,1.19712 0.63288,1.95379 1.77517,1.95379 0.78388,0 1.19698,-0.2202 1.69228,-0.71508 l 0.89429,0.83922 c -0.71579,0.71508 -1.38959,1.08659 -2.61408,1.08659 -1.74766,0 -3.13726,-0.92191 -3.13726,-3.57723 0,-2.25627 1.16946,-3.56377 2.9584,-3.56377 1.87078,0 2.95804,1.37626 2.95804,3.35746 v 0.61902 h -4.52684" />
  </g>
</svg>
